<svg xmlns="http://www.w3.org/2000/svg" width="660" height="400">
  <g class="chart-area">
    <g fill="none" font-family="sans-serif" font-size="10" text-anchor="middle">
      <path stroke="#000" d="M100.5 326v-5.5h410v5.5" class="domain"/>
      <g class="tick">
        <path stroke="#000" d="M140.38 320v6"/>
        <text x=".5" y="9" fill="#000" dy=".71em" style="font-size:12px" transform="translate(139.88 320)">2010</text>
      </g>
      <g class="tick">
        <path stroke="#000" d="M196.588 320v6"/>
        <text x=".5" y="9" fill="#000" dy=".71em" style="font-size:12px" transform="translate(196.088 320)">2012</text>
      </g>
      <g class="tick">
        <path stroke="#000" d="M252.872 320v6"/>
        <text x=".5" y="9" fill="#000" dy=".71em" style="font-size:12px" transform="translate(252.372 320)">2014</text>
      </g>
      <g class="tick">
        <path stroke="#000" d="M309.079 320v6"/>
        <text x=".5" y="9" fill="#000" dy=".71em" style="font-size:12px" transform="translate(308.579 320)">2016</text>
      </g>
      <g class="tick">
        <path stroke="#000" d="M365.363 320v6"/>
        <text x=".5" y="9" fill="#000" dy=".71em" style="font-size:12px" transform="translate(364.863 320)">2018</text>
      </g>
      <g class="tick">
        <path stroke="#000" d="M421.57 320v6"/>
        <text x=".5" y="9" fill="#000" dy=".71em" style="font-size:12px" transform="translate(421.07 320)">2020</text>
      </g>
      <g class="tick">
        <path stroke="#000" d="M477.854 320v6"/>
        <text x=".5" y="9" fill="#000" dy=".71em" style="font-size:12px" transform="translate(477.354 320)">2022</text>
      </g>
    </g>
    <g fill="none" stroke="#000" class="grid-lines" font-family="sans-serif" font-size="10" text-anchor="middle">
      <path d="M100.5 20v300.5h410V20" class="domain"/>
      <path d="M.5 0v-300" class="tick" style="stroke:#ccc;fill:none" transform="translate(139.88 320)"/>
      <path d="M.5 0v-300" class="tick" style="stroke:#ccc;fill:none" transform="translate(196.088 320)"/>
      <path d="M.5 0v-300" class="tick" style="stroke:#ccc;fill:none" transform="translate(252.372 320)"/>
      <path d="M.5 0v-300" class="tick" style="stroke:#ccc;fill:none" transform="translate(308.579 320)"/>
      <path d="M.5 0v-300" class="tick" style="stroke:#ccc;fill:none" transform="translate(364.863 320)"/>
      <path d="M.5 0v-300" class="tick" style="stroke:#ccc;fill:none" transform="translate(421.07 320)"/>
      <path d="M.5 0v-300" class="tick" style="stroke:#ccc;fill:none" transform="translate(477.354 320)"/>
    </g>
    <text x="205" y="360" class="axis-label x-axis-label" style="text-anchor:middle;font-weight:700" transform="translate(100 20)">Year</text>
    <g fill="none" font-family="sans-serif" font-size="10" text-anchor="end">
      <path stroke="#000" d="M94 320.5h6.5v-300H94" class="domain"/>
      <g class="tick">
        <path stroke="#000" d="M100 320.5h-6"/>
        <text x="-9" y=".5" fill="#000" dy=".32em" style="font-size:12px" transform="translate(100 320)">0.00%</text>
      </g>
      <g class="tick">
        <path stroke="#000" d="M100 295.5h-6"/>
        <text x="-9" y=".5" fill="#000" dy=".32em" style="font-size:12px" transform="translate(100 295)">0.50%</text>
      </g>
      <g class="tick">
        <path stroke="#000" d="M100 270.5h-6"/>
        <text x="-9" y=".5" fill="#000" dy=".32em" style="font-size:12px" transform="translate(100 270)">1.00%</text>
      </g>
      <g class="tick">
        <path stroke="#000" d="M100 245.5h-6"/>
        <text x="-9" y=".5" fill="#000" dy=".32em" style="font-size:12px" transform="translate(100 245)">1.50%</text>
      </g>
      <g class="tick">
        <path stroke="#000" d="M100 220.5h-6"/>
        <text x="-9" y=".5" fill="#000" dy=".32em" style="font-size:12px" transform="translate(100 220)">2.00%</text>
      </g>
      <g class="tick">
        <path stroke="#000" d="M100 195.5h-6"/>
        <text x="-9" y=".5" fill="#000" dy=".32em" style="font-size:12px" transform="translate(100 195)">2.50%</text>
      </g>
      <g class="tick">
        <path stroke="#000" d="M100 170.5h-6"/>
        <text x="-9" y=".5" fill="#000" dy=".32em" style="font-size:12px" transform="translate(100 170)">3.00%</text>
      </g>
      <g class="tick">
        <path stroke="#000" d="M100 145.5h-6"/>
        <text x="-9" y=".5" fill="#000" dy=".32em" style="font-size:12px" transform="translate(100 145)">3.50%</text>
      </g>
      <g class="tick">
        <path stroke="#000" d="M100 120.5h-6"/>
        <text x="-9" y=".5" fill="#000" dy=".32em" style="font-size:12px" transform="translate(100 120)">4.00%</text>
      </g>
      <g class="tick">
        <path stroke="#000" d="M100 95.5h-6"/>
        <text x="-9" y=".5" fill="#000" dy=".32em" style="font-size:12px" transform="translate(100 95)">4.50%</text>
      </g>
      <g class="tick">
        <path stroke="#000" d="M100 70.5h-6"/>
        <text x="-9" y=".5" fill="#000" dy=".32em" style="font-size:12px" transform="translate(100 70)">5.00%</text>
      </g>
      <g class="tick">
        <path stroke="#000" d="M100 45.5h-6"/>
        <text x="-9" y=".5" fill="#000" dy=".32em" style="font-size:12px" transform="translate(100 45)">5.50%</text>
      </g>
      <g class="tick">
        <path stroke="#000" d="M100 20.5h-6"/>
        <text x="-9" y=".5" fill="#000" dy=".32em" style="font-size:12px" transform="translate(100 20)">6.00%</text>
      </g>
    </g>
    <g fill="none" stroke="#000" class="grid-lines" font-family="sans-serif" font-size="10" text-anchor="end">
      <path d="M510 320.5H100.5v-300H510" class="domain"/>
      <path d="M0 .5h410" class="tick" style="stroke:#ccc;fill:none" transform="translate(100 320)"/>
      <path d="M0 .5h410" class="tick" style="stroke:#ccc;fill:none" transform="translate(100 295)"/>
      <path d="M0 .5h410" class="tick" style="stroke:#ccc;fill:none" transform="translate(100 270)"/>
      <path d="M0 .5h410" class="tick" style="stroke:#ccc;fill:none" transform="translate(100 245)"/>
      <path d="M0 .5h410" class="tick" style="stroke:#ccc;fill:none" transform="translate(100 220)"/>
      <path d="M0 .5h410" class="tick" style="stroke:#ccc;fill:none" transform="translate(100 195)"/>
      <path d="M0 .5h410" class="tick" style="stroke:#ccc;fill:none" transform="translate(100 170)"/>
      <path d="M0 .5h410" class="tick" style="stroke:#ccc;fill:none" transform="translate(100 145)"/>
      <path d="M0 .5h410" class="tick" style="stroke:#ccc;fill:none" transform="translate(100 120)"/>
      <path d="M0 .5h410" class="tick" style="stroke:#ccc;fill:none" transform="translate(100 95)"/>
      <path d="M0 .5h410" class="tick" style="stroke:#ccc;fill:none" transform="translate(100 70)"/>
      <path d="M0 .5h410" class="tick" style="stroke:#ccc;fill:none" transform="translate(100 45)"/>
      <path d="M0 .5h410" class="tick" style="stroke:#ccc;fill:none" transform="translate(100 20)"/>
    </g>
    <g class="lines">
      <path d="m2.387 26.534 2.307-7.406L7.08 6.775l2.31 28.166 2.387-6.048 2.387 28.637 2.156-16.859 2.387 17.524 2.313 3.42 2.387 14.74 2.31-5.175 2.387 12.538 2.386-7.635 2.307-10.68 2.387 5.228 2.31 8.395 2.387-2.87 2.387-32.24 2.155 21.134 2.387-15.765 2.313 16.39 2.387-21.19 2.31 33.68 2.387 13.703 2.387-16.323 2.307-6.87L63.287 56.5l2.31 16.886 2.387 7.089 2.387 10.802 2.156.518 2.387-10.684 2.313 24.673 2.387 1.096 2.31 1.012 2.387 6.921 2.386-8.845 2.307-20.983 2.387 8.76 2.31-4.513 2.387 14.362 2.387-10.474 2.232 10.556 2.387-9.943 2.313 19.912 2.387 7.976 2.31-8.391 2.387 3.424 2.387-3.283 2.307-11.732 2.386-14.712 2.31 1.935 2.387 18.347 2.387-6.506 2.156-8.679 2.387-.824 2.313 2.65 2.387 9.514 2.31 9.27 2.387 2.838 2.386-14.08 2.307-18.654 2.387-14.23 2.31 18.817 2.387 8.092 2.387-.492 2.155-4.662 2.387-.451 2.313 16.58 2.387 18.337 2.31-2.672 2.387-2.89 2.387-6.355 2.307-11.53 2.386 1.262 2.31.727 2.387 10.974 2.387-7.675 2.156-2.406 2.387 6.373 2.313 4.656 2.387 10.064 2.31 2.119 2.387 9.742 2.386-4.57 2.307-23.083 2.387-9.62 2.31 8.554 2.387 21.923 2.387-5.634 2.232-.156 2.387-1.076 2.313 13.412 2.387 6.773 2.31.422 2.387 16.692 2.387-11.997 2.307-20.62 2.386-3.111 2.31 12.538 2.387 1.093 2.387 12.493 2.156-6.869 2.387-10.22 2.313 22.605 2.387 10.757 2.31-8.34 2.387 4.724 2.386-2.892 2.307-15.75 2.387 4.456 2.31-4.379 2.387 5.123 2.387-1.063 2.155-.617 2.387 6.457 2.313 3.616 2.387 7.067 2.31 10.214 2.387-.827 2.387-6.416 2.307-4.722 2.386-10.987 2.31 10.57 2.387 3.825 2.387 3.538 2.156-10.209 2.387-5.255 2.313 6.328 2.387 2.385 2.31-7.367 2.387 21.526 2.386-18.503 2.307-20.367 2.387-.891 2.31 1.144 2.387 14.546 2.387 3.475 2.232-8.037 2.387-21.459 2.313-1.658 2.387 8.02 2.31 8.139 2.387-5.415 2.387 22.71 2.307-14.302 2.386-7.469 2.31-6.166 2.387 19.566 2.387-8.818 2.156 11.06 2.387-.128 2.313-11.845 2.387 8.219 2.31 7.186 2.387 8.453 2.386-17.508 2.307-6.24 2.387-3.663 2.31.807 2.387 8.279 2.387 10.957 2.155-1.62 2.387-5.17 2.313 11.716 2.387 11.92 2.31 3.095 2.387 3.116 2.387-3.773 2.307-.335 2.386 1.804 2.31-.025 2.387 9.005 2.387 8.158L410 181.678" class="line" data-legend="c++" style="stroke:#1f77b4;fill:none;stroke-width:1px" transform="translate(100 20)"/>
      <path d="M2.387 300H51.51l2.31-.083 2.387.083h37.494l2.387-.043 2.387-.2 2.232.093 2.387.15h4.7l2.31-.177 2.387.177 2.387-.038 2.307-.03 2.386-.136 2.31.204 2.387-.096 2.387-.003 2.156-.104 2.387-.15 2.313-.282 2.387.317 2.31-.024 2.387-.013 2.386.112 2.307-.413 2.387.342 2.31-.081 2.387-.671 2.387.343 2.155.02 2.387-.36 2.313-.225 2.387-.264 2.31-1.008 2.387-1.417 2.387 1.156 2.307-2.33 2.386.442 2.31-.733 2.387-1.623 2.387 1.953 2.156.498 2.387-.692 2.313-1.5 2.387.507 2.31.913 2.387.195 2.386.686 2.307.91 2.387-.305 2.31.102 2.387-.433 2.387.297 2.232-.643 2.387.552 2.313-.928 2.387-1.179 2.31 1.14 2.387-1.618 2.387 1.636 2.307-.642 2.386.314 2.31-.983 2.387-.2 2.387.661 2.156.413 2.387.125 2.313-.046 2.387.374 2.31-1.447 2.387.512 2.386 1.562 2.307-.657 2.387-.153 2.31-3.339 2.387 2.147 2.387-.302 2.155-.906 2.387 1.228 2.313-.837 2.387.171 2.31-.247 2.387.379 2.387-.877 2.307.838 2.386-.937 2.31-1.19 2.387-1.818 2.387 2.969 2.156.02 2.387-1.644 2.313.135 2.387-1.475 2.31.823 2.387-2.983 2.386.64 2.307 1.258 2.387.3 2.31-1.546 2.387 1.677 2.387-1.858 2.232.854 2.387-.915 2.313-.969 2.387 1.16 2.31-1.955 2.387-1.706 2.387.089 2.307.234 2.386 1.8 2.31-4.022 2.387-.327 2.387 1.649 2.156-2.76 2.387-1.232 2.313 2.25 2.387-1.416 2.31-.818 2.387 1.783 2.386 2.05 2.307-2.696 2.387-1.178 2.31-7.373 2.387 2.417 2.387 3.636 2.155-.84 2.387-.637 2.313 1.13 2.387-3.317 2.31 1.534 2.387-5.075 2.387 2.912 2.307-2.517 2.386-.002 2.31-4.251 2.387-.757 2.387.102 2.156.69" class="line" data-legend="rust" style="stroke:#ff7f0e;fill:none" transform="translate(100 20)"/>
    </g>
  </g>
  <text x="-50" class="axis-label y-axis-label" dy="1em" style="text-anchor:middle;font-weight:700" transform="rotate(-90 85 65)">% of Stack Overflow questions that month</text>
  <g class="legend" style="font-size:12px" transform="translate(530 30)">
    <text class="legend-title" style="font-weight:700">Tag</text>
    <g class="legend-items" transform="translate(0 20)">
      <text x="1em" y="0em" style="opacity:1">c++</text>
      <text x="1em" y="1em" style="opacity:1">rust</text>
      <circle cy="-.25em" r=".4em" style="fill:#1f77b4"/>
      <circle cy=".75em" r=".4em" style="fill:#ff7f0e"/>
    </g>
    <rect class="legend-box"/>
  </g>
</svg>
